<mxfile host="Electron" agent="Mozilla/5.0 (Windows NT 10.0; Win64; x64) AppleWebKit/537.36 (KHTML, like Gecko) draw.io/26.0.9 Chrome/128.0.6613.186 Electron/32.2.5 Safari/537.36" version="26.0.9">
  <diagram id="R2lEEEUBdFMjLlhIrx00" name="Page-1">
    <mxGraphModel dx="2206" dy="1286" grid="1" gridSize="10" guides="1" tooltips="1" connect="1" arrows="1" fold="1" page="1" pageScale="1" pageWidth="850" pageHeight="1100" math="0" shadow="0" extFonts="Permanent Marker^https://fonts.googleapis.com/css?family=Permanent+Marker">
      <root>
        <mxCell id="0" />
        <mxCell id="1" parent="0" />
        <mxCell id="JHcWR6IvonrnQp6wBBEh-5" value="User" style="swimlane;fontStyle=0;childLayout=stackLayout;horizontal=1;startSize=26;horizontalStack=0;resizeParent=1;resizeParentMax=0;resizeLast=0;collapsible=1;marginBottom=0;align=center;fontSize=14;fontFamily=Comic Sans MS;" parent="1" vertex="1">
          <mxGeometry x="1321.5" y="246" width="120" height="326" as="geometry">
            <mxRectangle x="240" y="1860" width="60" height="30" as="alternateBounds" />
          </mxGeometry>
        </mxCell>
        <mxCell id="JHcWR6IvonrnQp6wBBEh-6" value="id" style="text;strokeColor=none;fillColor=none;spacingLeft=4;spacingRight=4;overflow=hidden;rotatable=0;points=[[0,0.5],[1,0.5]];portConstraint=eastwest;fontSize=12;whiteSpace=wrap;html=1;fontFamily=Comic Sans MS;labelBorderColor=none;textShadow=0;fontStyle=4" parent="JHcWR6IvonrnQp6wBBEh-5" vertex="1">
          <mxGeometry y="26" width="120" height="30" as="geometry" />
        </mxCell>
        <mxCell id="JHcWR6IvonrnQp6wBBEh-7" value="username" style="text;strokeColor=none;fillColor=none;spacingLeft=4;spacingRight=4;overflow=hidden;rotatable=0;points=[[0,0.5],[1,0.5]];portConstraint=eastwest;fontSize=12;whiteSpace=wrap;html=1;fontFamily=Comic Sans MS;" parent="JHcWR6IvonrnQp6wBBEh-5" vertex="1">
          <mxGeometry y="56" width="120" height="30" as="geometry" />
        </mxCell>
        <mxCell id="JHcWR6IvonrnQp6wBBEh-8" value="email" style="text;strokeColor=none;fillColor=none;spacingLeft=4;spacingRight=4;overflow=hidden;rotatable=0;points=[[0,0.5],[1,0.5]];portConstraint=eastwest;fontSize=12;whiteSpace=wrap;html=1;fontFamily=Comic Sans MS;" parent="JHcWR6IvonrnQp6wBBEh-5" vertex="1">
          <mxGeometry y="86" width="120" height="30" as="geometry" />
        </mxCell>
        <mxCell id="JHcWR6IvonrnQp6wBBEh-9" value="password" style="text;strokeColor=none;fillColor=none;spacingLeft=4;spacingRight=4;overflow=hidden;rotatable=0;points=[[0,0.5],[1,0.5]];portConstraint=eastwest;fontSize=12;whiteSpace=wrap;html=1;fontFamily=Comic Sans MS;" parent="JHcWR6IvonrnQp6wBBEh-5" vertex="1">
          <mxGeometry y="116" width="120" height="30" as="geometry" />
        </mxCell>
        <mxCell id="JHcWR6IvonrnQp6wBBEh-10" value="contact_info" style="text;strokeColor=none;fillColor=none;spacingLeft=4;spacingRight=4;overflow=hidden;rotatable=0;points=[[0,0.5],[1,0.5]];portConstraint=eastwest;fontSize=12;whiteSpace=wrap;html=1;fontFamily=Comic Sans MS;" parent="JHcWR6IvonrnQp6wBBEh-5" vertex="1">
          <mxGeometry y="146" width="120" height="30" as="geometry" />
        </mxCell>
        <mxCell id="JHcWR6IvonrnQp6wBBEh-11" value="&amp;nbsp; &amp;nbsp; &amp;nbsp; &amp;nbsp; &amp;nbsp;address" style="text;strokeColor=none;fillColor=none;spacingLeft=4;spacingRight=4;overflow=hidden;rotatable=0;points=[[0,0.5],[1,0.5]];portConstraint=eastwest;fontSize=12;whiteSpace=wrap;html=1;fontFamily=Comic Sans MS;" parent="JHcWR6IvonrnQp6wBBEh-5" vertex="1">
          <mxGeometry y="176" width="120" height="30" as="geometry" />
        </mxCell>
        <mxCell id="JHcWR6IvonrnQp6wBBEh-12" value="&amp;nbsp; &amp;nbsp; &amp;nbsp; &amp;nbsp; &amp;nbsp; &amp;nbsp; &amp;nbsp; &amp;nbsp;country" style="text;strokeColor=none;fillColor=none;spacingLeft=4;spacingRight=4;overflow=hidden;rotatable=0;points=[[0,0.5],[1,0.5]];portConstraint=eastwest;fontSize=12;whiteSpace=wrap;html=1;fontFamily=Comic Sans MS;" parent="JHcWR6IvonrnQp6wBBEh-5" vertex="1">
          <mxGeometry y="206" width="120" height="30" as="geometry" />
        </mxCell>
        <mxCell id="JHcWR6IvonrnQp6wBBEh-18" value="&amp;nbsp; &amp;nbsp; &amp;nbsp; &amp;nbsp; &amp;nbsp; &amp;nbsp; &amp;nbsp; &amp;nbsp;province" style="text;strokeColor=none;fillColor=none;spacingLeft=4;spacingRight=4;overflow=hidden;rotatable=0;points=[[0,0.5],[1,0.5]];portConstraint=eastwest;fontSize=12;whiteSpace=wrap;html=1;fontFamily=Comic Sans MS;" parent="JHcWR6IvonrnQp6wBBEh-5" vertex="1">
          <mxGeometry y="236" width="120" height="30" as="geometry" />
        </mxCell>
        <mxCell id="JHcWR6IvonrnQp6wBBEh-19" value="&amp;nbsp; &amp;nbsp; &amp;nbsp; &amp;nbsp; &amp;nbsp; &amp;nbsp; &amp;nbsp; &amp;nbsp;city" style="text;strokeColor=none;fillColor=none;spacingLeft=4;spacingRight=4;overflow=hidden;rotatable=0;points=[[0,0.5],[1,0.5]];portConstraint=eastwest;fontSize=12;whiteSpace=wrap;html=1;fontFamily=Comic Sans MS;" parent="JHcWR6IvonrnQp6wBBEh-5" vertex="1">
          <mxGeometry y="266" width="120" height="30" as="geometry" />
        </mxCell>
        <mxCell id="JHcWR6IvonrnQp6wBBEh-21" value="&amp;nbsp; &amp;nbsp; &amp;nbsp; &amp;nbsp; &amp;nbsp; &amp;nbsp;phone" style="text;strokeColor=none;fillColor=none;spacingLeft=4;spacingRight=4;overflow=hidden;rotatable=0;points=[[0,0.5],[1,0.5]];portConstraint=eastwest;fontSize=12;whiteSpace=wrap;html=1;fontFamily=Comic Sans MS;" parent="JHcWR6IvonrnQp6wBBEh-5" vertex="1">
          <mxGeometry y="296" width="120" height="30" as="geometry" />
        </mxCell>
        <mxCell id="JHcWR6IvonrnQp6wBBEh-22" value="Admin" style="swimlane;fontStyle=0;childLayout=stackLayout;horizontal=1;startSize=26;horizontalStack=0;resizeParent=1;resizeParentMax=0;resizeLast=0;collapsible=1;marginBottom=0;align=center;fontSize=14;fontFamily=Comic Sans MS;" parent="1" vertex="1">
          <mxGeometry x="1079" y="51" width="120" height="86" as="geometry">
            <mxRectangle x="240" y="1860" width="60" height="30" as="alternateBounds" />
          </mxGeometry>
        </mxCell>
        <mxCell id="JHcWR6IvonrnQp6wBBEh-23" value="admin_level" style="text;strokeColor=none;fillColor=none;spacingLeft=4;spacingRight=4;overflow=hidden;rotatable=0;points=[[0,0.5],[1,0.5]];portConstraint=eastwest;fontSize=12;whiteSpace=wrap;html=1;fontFamily=Comic Sans MS;labelBorderColor=none;textShadow=0;fontStyle=0" parent="JHcWR6IvonrnQp6wBBEh-22" vertex="1">
          <mxGeometry y="26" width="120" height="30" as="geometry" />
        </mxCell>
        <mxCell id="JHcWR6IvonrnQp6wBBEh-24" value="permissions" style="text;strokeColor=none;fillColor=none;spacingLeft=4;spacingRight=4;overflow=hidden;rotatable=0;points=[[0,0.5],[1,0.5]];portConstraint=eastwest;fontSize=12;whiteSpace=wrap;html=1;fontFamily=Comic Sans MS;" parent="JHcWR6IvonrnQp6wBBEh-22" vertex="1">
          <mxGeometry y="56" width="120" height="30" as="geometry" />
        </mxCell>
        <mxCell id="JHcWR6IvonrnQp6wBBEh-33" value="Editor" style="swimlane;fontStyle=0;childLayout=stackLayout;horizontal=1;startSize=26;horizontalStack=0;resizeParent=1;resizeParentMax=0;resizeLast=0;collapsible=1;marginBottom=0;align=center;fontSize=14;fontFamily=Comic Sans MS;" parent="1" vertex="1">
          <mxGeometry x="1584" y="51" width="120" height="86" as="geometry">
            <mxRectangle x="240" y="1860" width="60" height="30" as="alternateBounds" />
          </mxGeometry>
        </mxCell>
        <mxCell id="JHcWR6IvonrnQp6wBBEh-34" value="editing_rights" style="text;strokeColor=none;fillColor=none;spacingLeft=4;spacingRight=4;overflow=hidden;rotatable=0;points=[[0,0.5],[1,0.5]];portConstraint=eastwest;fontSize=12;whiteSpace=wrap;html=1;fontFamily=Comic Sans MS;labelBorderColor=none;textShadow=0;fontStyle=0" parent="JHcWR6IvonrnQp6wBBEh-33" vertex="1">
          <mxGeometry y="26" width="120" height="30" as="geometry" />
        </mxCell>
        <mxCell id="JHcWR6IvonrnQp6wBBEh-35" value="assigned_articles" style="text;strokeColor=none;fillColor=none;spacingLeft=4;spacingRight=4;overflow=hidden;rotatable=0;points=[[0,0.5],[1,0.5]];portConstraint=eastwest;fontSize=12;whiteSpace=wrap;html=1;fontFamily=Comic Sans MS;" parent="JHcWR6IvonrnQp6wBBEh-33" vertex="1">
          <mxGeometry y="56" width="120" height="30" as="geometry" />
        </mxCell>
        <mxCell id="JHcWR6IvonrnQp6wBBEh-36" value="Reader" style="swimlane;fontStyle=0;childLayout=stackLayout;horizontal=1;startSize=26;horizontalStack=0;resizeParent=1;resizeParentMax=0;resizeLast=0;collapsible=1;marginBottom=0;align=center;fontSize=14;fontFamily=Comic Sans MS;" parent="1" vertex="1">
          <mxGeometry x="1319" y="51" width="120" height="56" as="geometry">
            <mxRectangle x="240" y="1860" width="60" height="30" as="alternateBounds" />
          </mxGeometry>
        </mxCell>
        <mxCell id="JHcWR6IvonrnQp6wBBEh-38" value="favorite_articles" style="text;strokeColor=none;fillColor=none;spacingLeft=4;spacingRight=4;overflow=hidden;rotatable=0;points=[[0,0.5],[1,0.5]];portConstraint=eastwest;fontSize=12;whiteSpace=wrap;html=1;fontFamily=Comic Sans MS;" parent="JHcWR6IvonrnQp6wBBEh-36" vertex="1">
          <mxGeometry y="26" width="120" height="30" as="geometry" />
        </mxCell>
        <mxCell id="JHcWR6IvonrnQp6wBBEh-39" value="Media" style="swimlane;fontStyle=0;childLayout=stackLayout;horizontal=1;startSize=26;horizontalStack=0;resizeParent=1;resizeParentMax=0;resizeLast=0;collapsible=1;marginBottom=0;align=center;fontSize=14;fontFamily=Comic Sans MS;" parent="1" vertex="1">
          <mxGeometry x="573" y="431" width="120" height="206" as="geometry">
            <mxRectangle x="240" y="1860" width="60" height="30" as="alternateBounds" />
          </mxGeometry>
        </mxCell>
        <mxCell id="JHcWR6IvonrnQp6wBBEh-40" value="id" style="text;strokeColor=none;fillColor=none;spacingLeft=4;spacingRight=4;overflow=hidden;rotatable=0;points=[[0,0.5],[1,0.5]];portConstraint=eastwest;fontSize=12;whiteSpace=wrap;html=1;fontFamily=Comic Sans MS;labelBorderColor=none;textShadow=0;fontStyle=4" parent="JHcWR6IvonrnQp6wBBEh-39" vertex="1">
          <mxGeometry y="26" width="120" height="30" as="geometry" />
        </mxCell>
        <mxCell id="JHcWR6IvonrnQp6wBBEh-41" value="file_url" style="text;strokeColor=none;fillColor=none;spacingLeft=4;spacingRight=4;overflow=hidden;rotatable=0;points=[[0,0.5],[1,0.5]];portConstraint=eastwest;fontSize=12;whiteSpace=wrap;html=1;fontFamily=Comic Sans MS;" parent="JHcWR6IvonrnQp6wBBEh-39" vertex="1">
          <mxGeometry y="56" width="120" height="30" as="geometry" />
        </mxCell>
        <mxCell id="JHcWR6IvonrnQp6wBBEh-42" value="file_type" style="text;strokeColor=none;fillColor=none;spacingLeft=4;spacingRight=4;overflow=hidden;rotatable=0;points=[[0,0.5],[1,0.5]];portConstraint=eastwest;fontSize=12;whiteSpace=wrap;html=1;fontFamily=Comic Sans MS;" parent="JHcWR6IvonrnQp6wBBEh-39" vertex="1">
          <mxGeometry y="86" width="120" height="30" as="geometry" />
        </mxCell>
        <mxCell id="JHcWR6IvonrnQp6wBBEh-43" value="file_size" style="text;strokeColor=none;fillColor=none;spacingLeft=4;spacingRight=4;overflow=hidden;rotatable=0;points=[[0,0.5],[1,0.5]];portConstraint=eastwest;fontSize=12;whiteSpace=wrap;html=1;fontFamily=Comic Sans MS;" parent="JHcWR6IvonrnQp6wBBEh-39" vertex="1">
          <mxGeometry y="116" width="120" height="30" as="geometry" />
        </mxCell>
        <mxCell id="JHcWR6IvonrnQp6wBBEh-44" value="uploaded_by" style="text;strokeColor=none;fillColor=none;spacingLeft=4;spacingRight=4;overflow=hidden;rotatable=0;points=[[0,0.5],[1,0.5]];portConstraint=eastwest;fontSize=12;whiteSpace=wrap;html=1;fontFamily=Comic Sans MS;" parent="JHcWR6IvonrnQp6wBBEh-39" vertex="1">
          <mxGeometry y="146" width="120" height="30" as="geometry" />
        </mxCell>
        <mxCell id="JHcWR6IvonrnQp6wBBEh-45" value="uploaded_date" style="text;strokeColor=none;fillColor=none;spacingLeft=4;spacingRight=4;overflow=hidden;rotatable=0;points=[[0,0.5],[1,0.5]];portConstraint=eastwest;fontSize=12;whiteSpace=wrap;html=1;fontFamily=Comic Sans MS;" parent="JHcWR6IvonrnQp6wBBEh-39" vertex="1">
          <mxGeometry y="176" width="120" height="30" as="geometry" />
        </mxCell>
        <mxCell id="JHcWR6IvonrnQp6wBBEh-46" value="Images" style="swimlane;fontStyle=0;childLayout=stackLayout;horizontal=1;startSize=26;horizontalStack=0;resizeParent=1;resizeParentMax=0;resizeLast=0;collapsible=1;marginBottom=0;align=center;fontSize=14;fontFamily=Comic Sans MS;" parent="1" vertex="1">
          <mxGeometry x="466" y="757" width="120" height="116" as="geometry">
            <mxRectangle x="240" y="1860" width="60" height="30" as="alternateBounds" />
          </mxGeometry>
        </mxCell>
        <mxCell id="JHcWR6IvonrnQp6wBBEh-47" value="id" style="text;strokeColor=none;fillColor=none;spacingLeft=4;spacingRight=4;overflow=hidden;rotatable=0;points=[[0,0.5],[1,0.5]];portConstraint=eastwest;fontSize=12;whiteSpace=wrap;html=1;fontFamily=Comic Sans MS;labelBorderColor=none;textShadow=0;fontStyle=4" parent="JHcWR6IvonrnQp6wBBEh-46" vertex="1">
          <mxGeometry y="26" width="120" height="30" as="geometry" />
        </mxCell>
        <mxCell id="JHcWR6IvonrnQp6wBBEh-48" value="resolution" style="text;strokeColor=none;fillColor=none;spacingLeft=4;spacingRight=4;overflow=hidden;rotatable=0;points=[[0,0.5],[1,0.5]];portConstraint=eastwest;fontSize=12;whiteSpace=wrap;html=1;fontFamily=Comic Sans MS;" parent="JHcWR6IvonrnQp6wBBEh-46" vertex="1">
          <mxGeometry y="56" width="120" height="30" as="geometry" />
        </mxCell>
        <mxCell id="JHcWR6IvonrnQp6wBBEh-49" value="aspect_ratio" style="text;strokeColor=none;fillColor=none;spacingLeft=4;spacingRight=4;overflow=hidden;rotatable=0;points=[[0,0.5],[1,0.5]];portConstraint=eastwest;fontSize=12;whiteSpace=wrap;html=1;fontFamily=Comic Sans MS;" parent="JHcWR6IvonrnQp6wBBEh-46" vertex="1">
          <mxGeometry y="86" width="120" height="30" as="geometry" />
        </mxCell>
        <mxCell id="JHcWR6IvonrnQp6wBBEh-53" value="Videos" style="swimlane;fontStyle=0;childLayout=stackLayout;horizontal=1;startSize=26;horizontalStack=0;resizeParent=1;resizeParentMax=0;resizeLast=0;collapsible=1;marginBottom=0;align=center;fontSize=14;fontFamily=Comic Sans MS;" parent="1" vertex="1">
          <mxGeometry x="696" y="757" width="120" height="116" as="geometry">
            <mxRectangle x="240" y="1860" width="60" height="30" as="alternateBounds" />
          </mxGeometry>
        </mxCell>
        <mxCell id="JHcWR6IvonrnQp6wBBEh-54" value="id" style="text;strokeColor=none;fillColor=none;spacingLeft=4;spacingRight=4;overflow=hidden;rotatable=0;points=[[0,0.5],[1,0.5]];portConstraint=eastwest;fontSize=12;whiteSpace=wrap;html=1;fontFamily=Comic Sans MS;labelBorderColor=none;textShadow=0;fontStyle=4" parent="JHcWR6IvonrnQp6wBBEh-53" vertex="1">
          <mxGeometry y="26" width="120" height="30" as="geometry" />
        </mxCell>
        <mxCell id="JHcWR6IvonrnQp6wBBEh-55" value="duration" style="text;strokeColor=none;fillColor=none;spacingLeft=4;spacingRight=4;overflow=hidden;rotatable=0;points=[[0,0.5],[1,0.5]];portConstraint=eastwest;fontSize=12;whiteSpace=wrap;html=1;fontFamily=Comic Sans MS;" parent="JHcWR6IvonrnQp6wBBEh-53" vertex="1">
          <mxGeometry y="56" width="120" height="30" as="geometry" />
        </mxCell>
        <mxCell id="JHcWR6IvonrnQp6wBBEh-56" value="quality" style="text;strokeColor=none;fillColor=none;spacingLeft=4;spacingRight=4;overflow=hidden;rotatable=0;points=[[0,0.5],[1,0.5]];portConstraint=eastwest;fontSize=12;whiteSpace=wrap;html=1;fontFamily=Comic Sans MS;" parent="JHcWR6IvonrnQp6wBBEh-53" vertex="1">
          <mxGeometry y="86" width="120" height="30" as="geometry" />
        </mxCell>
        <mxCell id="JHcWR6IvonrnQp6wBBEh-60" value="User_logs" style="swimlane;fontStyle=0;childLayout=stackLayout;horizontal=1;startSize=26;horizontalStack=0;resizeParent=1;resizeParentMax=0;resizeLast=0;collapsible=1;marginBottom=0;align=center;fontSize=14;fontFamily=Comic Sans MS;" parent="1" vertex="1">
          <mxGeometry x="776" y="30" width="120" height="296" as="geometry">
            <mxRectangle x="240" y="1860" width="60" height="30" as="alternateBounds" />
          </mxGeometry>
        </mxCell>
        <mxCell id="JHcWR6IvonrnQp6wBBEh-61" value="id" style="text;strokeColor=none;fillColor=none;spacingLeft=4;spacingRight=4;overflow=hidden;rotatable=0;points=[[0,0.5],[1,0.5]];portConstraint=eastwest;fontSize=12;whiteSpace=wrap;html=1;fontFamily=Comic Sans MS;labelBorderColor=none;textShadow=0;fontStyle=4" parent="JHcWR6IvonrnQp6wBBEh-60" vertex="1">
          <mxGeometry y="26" width="120" height="30" as="geometry" />
        </mxCell>
        <mxCell id="JHcWR6IvonrnQp6wBBEh-62" value="action" style="text;strokeColor=none;fillColor=none;spacingLeft=4;spacingRight=4;overflow=hidden;rotatable=0;points=[[0,0.5],[1,0.5]];portConstraint=eastwest;fontSize=12;whiteSpace=wrap;html=1;fontFamily=Comic Sans MS;" parent="JHcWR6IvonrnQp6wBBEh-60" vertex="1">
          <mxGeometry y="56" width="120" height="30" as="geometry" />
        </mxCell>
        <mxCell id="JHcWR6IvonrnQp6wBBEh-63" value="user_id" style="text;strokeColor=none;fillColor=none;spacingLeft=4;spacingRight=4;overflow=hidden;rotatable=0;points=[[0,0.5],[1,0.5]];portConstraint=eastwest;fontSize=12;whiteSpace=wrap;html=1;fontFamily=Comic Sans MS;" parent="JHcWR6IvonrnQp6wBBEh-60" vertex="1">
          <mxGeometry y="86" width="120" height="30" as="geometry" />
        </mxCell>
        <mxCell id="JHcWR6IvonrnQp6wBBEh-64" value="target_type" style="text;strokeColor=none;fillColor=none;spacingLeft=4;spacingRight=4;overflow=hidden;rotatable=0;points=[[0,0.5],[1,0.5]];portConstraint=eastwest;fontSize=12;whiteSpace=wrap;html=1;fontFamily=Comic Sans MS;" parent="JHcWR6IvonrnQp6wBBEh-60" vertex="1">
          <mxGeometry y="116" width="120" height="30" as="geometry" />
        </mxCell>
        <mxCell id="JHcWR6IvonrnQp6wBBEh-65" value="targer_id" style="text;strokeColor=none;fillColor=none;spacingLeft=4;spacingRight=4;overflow=hidden;rotatable=0;points=[[0,0.5],[1,0.5]];portConstraint=eastwest;fontSize=12;whiteSpace=wrap;html=1;fontFamily=Comic Sans MS;" parent="JHcWR6IvonrnQp6wBBEh-60" vertex="1">
          <mxGeometry y="146" width="120" height="30" as="geometry" />
        </mxCell>
        <mxCell id="JHcWR6IvonrnQp6wBBEh-66" value="datetime" style="text;strokeColor=none;fillColor=none;spacingLeft=4;spacingRight=4;overflow=hidden;rotatable=0;points=[[0,0.5],[1,0.5]];portConstraint=eastwest;fontSize=12;whiteSpace=wrap;html=1;fontFamily=Comic Sans MS;" parent="JHcWR6IvonrnQp6wBBEh-60" vertex="1">
          <mxGeometry y="176" width="120" height="30" as="geometry" />
        </mxCell>
        <mxCell id="JHcWR6IvonrnQp6wBBEh-67" value="metadata" style="text;strokeColor=none;fillColor=none;spacingLeft=4;spacingRight=4;overflow=hidden;rotatable=0;points=[[0,0.5],[1,0.5]];portConstraint=eastwest;fontSize=12;whiteSpace=wrap;html=1;fontFamily=Comic Sans MS;" parent="JHcWR6IvonrnQp6wBBEh-60" vertex="1">
          <mxGeometry y="206" width="120" height="30" as="geometry" />
        </mxCell>
        <mxCell id="JHcWR6IvonrnQp6wBBEh-68" value="&amp;nbsp; &amp;nbsp; &amp;nbsp; &amp;nbsp; &amp;nbsp;Device" style="text;strokeColor=none;fillColor=none;spacingLeft=4;spacingRight=4;overflow=hidden;rotatable=0;points=[[0,0.5],[1,0.5]];portConstraint=eastwest;fontSize=12;whiteSpace=wrap;html=1;fontFamily=Comic Sans MS;" parent="JHcWR6IvonrnQp6wBBEh-60" vertex="1">
          <mxGeometry y="236" width="120" height="30" as="geometry" />
        </mxCell>
        <mxCell id="JHcWR6IvonrnQp6wBBEh-69" value="&amp;nbsp; &amp;nbsp; &amp;nbsp; &amp;nbsp; &amp;nbsp;IP_Adress" style="text;strokeColor=none;fillColor=none;spacingLeft=4;spacingRight=4;overflow=hidden;rotatable=0;points=[[0,0.5],[1,0.5]];portConstraint=eastwest;fontSize=12;whiteSpace=wrap;html=1;fontFamily=Comic Sans MS;" parent="JHcWR6IvonrnQp6wBBEh-60" vertex="1">
          <mxGeometry y="266" width="120" height="30" as="geometry" />
        </mxCell>
        <mxCell id="JHcWR6IvonrnQp6wBBEh-70" value="Comments" style="swimlane;fontStyle=0;childLayout=stackLayout;horizontal=1;startSize=26;horizontalStack=0;resizeParent=1;resizeParentMax=0;resizeLast=0;collapsible=1;marginBottom=0;align=center;fontSize=14;fontFamily=Comic Sans MS;" parent="1" vertex="1">
          <mxGeometry x="1771.5" y="251" width="120" height="236" as="geometry">
            <mxRectangle x="240" y="1860" width="60" height="30" as="alternateBounds" />
          </mxGeometry>
        </mxCell>
        <mxCell id="JHcWR6IvonrnQp6wBBEh-71" value="id" style="text;strokeColor=none;fillColor=none;spacingLeft=4;spacingRight=4;overflow=hidden;rotatable=0;points=[[0,0.5],[1,0.5]];portConstraint=eastwest;fontSize=12;whiteSpace=wrap;html=1;fontFamily=Comic Sans MS;labelBorderColor=none;textShadow=0;fontStyle=4" parent="JHcWR6IvonrnQp6wBBEh-70" vertex="1">
          <mxGeometry y="26" width="120" height="30" as="geometry" />
        </mxCell>
        <mxCell id="JHcWR6IvonrnQp6wBBEh-72" value="article_id" style="text;strokeColor=none;fillColor=none;spacingLeft=4;spacingRight=4;overflow=hidden;rotatable=0;points=[[0,0.5],[1,0.5]];portConstraint=eastwest;fontSize=12;whiteSpace=wrap;html=1;fontFamily=Comic Sans MS;" parent="JHcWR6IvonrnQp6wBBEh-70" vertex="1">
          <mxGeometry y="56" width="120" height="30" as="geometry" />
        </mxCell>
        <mxCell id="JHcWR6IvonrnQp6wBBEh-73" value="user_id" style="text;strokeColor=none;fillColor=none;spacingLeft=4;spacingRight=4;overflow=hidden;rotatable=0;points=[[0,0.5],[1,0.5]];portConstraint=eastwest;fontSize=12;whiteSpace=wrap;html=1;fontFamily=Comic Sans MS;" parent="JHcWR6IvonrnQp6wBBEh-70" vertex="1">
          <mxGeometry y="86" width="120" height="30" as="geometry" />
        </mxCell>
        <mxCell id="JHcWR6IvonrnQp6wBBEh-74" value="created_at" style="text;strokeColor=none;fillColor=none;spacingLeft=4;spacingRight=4;overflow=hidden;rotatable=0;points=[[0,0.5],[1,0.5]];portConstraint=eastwest;fontSize=12;whiteSpace=wrap;html=1;fontFamily=Comic Sans MS;" parent="JHcWR6IvonrnQp6wBBEh-70" vertex="1">
          <mxGeometry y="116" width="120" height="30" as="geometry" />
        </mxCell>
        <mxCell id="JHcWR6IvonrnQp6wBBEh-75" value="is_active" style="text;strokeColor=none;fillColor=none;spacingLeft=4;spacingRight=4;overflow=hidden;rotatable=0;points=[[0,0.5],[1,0.5]];portConstraint=eastwest;fontSize=12;whiteSpace=wrap;html=1;fontFamily=Comic Sans MS;" parent="JHcWR6IvonrnQp6wBBEh-70" vertex="1">
          <mxGeometry y="146" width="120" height="30" as="geometry" />
        </mxCell>
        <mxCell id="JHcWR6IvonrnQp6wBBEh-76" value="comment_text" style="text;strokeColor=none;fillColor=none;spacingLeft=4;spacingRight=4;overflow=hidden;rotatable=0;points=[[0,0.5],[1,0.5]];portConstraint=eastwest;fontSize=12;whiteSpace=wrap;html=1;fontFamily=Comic Sans MS;" parent="JHcWR6IvonrnQp6wBBEh-70" vertex="1">
          <mxGeometry y="176" width="120" height="30" as="geometry" />
        </mxCell>
        <mxCell id="JHcWR6IvonrnQp6wBBEh-77" value="parent_id" style="text;strokeColor=none;fillColor=none;spacingLeft=4;spacingRight=4;overflow=hidden;rotatable=0;points=[[0,0.5],[1,0.5]];portConstraint=eastwest;fontSize=12;whiteSpace=wrap;html=1;fontFamily=Comic Sans MS;" parent="JHcWR6IvonrnQp6wBBEh-70" vertex="1">
          <mxGeometry y="206" width="120" height="30" as="geometry" />
        </mxCell>
        <mxCell id="JHcWR6IvonrnQp6wBBEh-80" value="Likes" style="swimlane;fontStyle=0;childLayout=stackLayout;horizontal=1;startSize=26;horizontalStack=0;resizeParent=1;resizeParentMax=0;resizeLast=0;collapsible=1;marginBottom=0;align=center;fontSize=14;fontFamily=Comic Sans MS;" parent="1" vertex="1">
          <mxGeometry x="1771.5" y="556" width="120" height="146" as="geometry">
            <mxRectangle x="240" y="1860" width="60" height="30" as="alternateBounds" />
          </mxGeometry>
        </mxCell>
        <mxCell id="JHcWR6IvonrnQp6wBBEh-81" value="id" style="text;strokeColor=none;fillColor=none;spacingLeft=4;spacingRight=4;overflow=hidden;rotatable=0;points=[[0,0.5],[1,0.5]];portConstraint=eastwest;fontSize=12;whiteSpace=wrap;html=1;fontFamily=Comic Sans MS;labelBorderColor=none;textShadow=0;fontStyle=4" parent="JHcWR6IvonrnQp6wBBEh-80" vertex="1">
          <mxGeometry y="26" width="120" height="30" as="geometry" />
        </mxCell>
        <mxCell id="JHcWR6IvonrnQp6wBBEh-82" value="associated_id" style="text;strokeColor=none;fillColor=none;spacingLeft=4;spacingRight=4;overflow=hidden;rotatable=0;points=[[0,0.5],[1,0.5]];portConstraint=eastwest;fontSize=12;whiteSpace=wrap;html=1;fontFamily=Comic Sans MS;" parent="JHcWR6IvonrnQp6wBBEh-80" vertex="1">
          <mxGeometry y="56" width="120" height="30" as="geometry" />
        </mxCell>
        <mxCell id="JHcWR6IvonrnQp6wBBEh-83" value="user_id" style="text;strokeColor=none;fillColor=none;spacingLeft=4;spacingRight=4;overflow=hidden;rotatable=0;points=[[0,0.5],[1,0.5]];portConstraint=eastwest;fontSize=12;whiteSpace=wrap;html=1;fontFamily=Comic Sans MS;" parent="JHcWR6IvonrnQp6wBBEh-80" vertex="1">
          <mxGeometry y="86" width="120" height="30" as="geometry" />
        </mxCell>
        <mxCell id="JHcWR6IvonrnQp6wBBEh-84" value="created_at" style="text;strokeColor=none;fillColor=none;spacingLeft=4;spacingRight=4;overflow=hidden;rotatable=0;points=[[0,0.5],[1,0.5]];portConstraint=eastwest;fontSize=12;whiteSpace=wrap;html=1;fontFamily=Comic Sans MS;" parent="JHcWR6IvonrnQp6wBBEh-80" vertex="1">
          <mxGeometry y="116" width="120" height="30" as="geometry" />
        </mxCell>
        <mxCell id="JHcWR6IvonrnQp6wBBEh-90" value="Articles" style="swimlane;fontStyle=0;childLayout=stackLayout;horizontal=1;startSize=26;horizontalStack=0;resizeParent=1;resizeParentMax=0;resizeLast=0;collapsible=1;marginBottom=0;align=center;fontSize=14;fontFamily=Comic Sans MS;" parent="1" vertex="1">
          <mxGeometry x="1475" y="590" width="120" height="476" as="geometry">
            <mxRectangle x="240" y="1860" width="60" height="30" as="alternateBounds" />
          </mxGeometry>
        </mxCell>
        <mxCell id="JHcWR6IvonrnQp6wBBEh-91" value="id" style="text;strokeColor=none;fillColor=none;spacingLeft=4;spacingRight=4;overflow=hidden;rotatable=0;points=[[0,0.5],[1,0.5]];portConstraint=eastwest;fontSize=12;whiteSpace=wrap;html=1;fontFamily=Comic Sans MS;labelBorderColor=none;textShadow=0;fontStyle=4" parent="JHcWR6IvonrnQp6wBBEh-90" vertex="1">
          <mxGeometry y="26" width="120" height="30" as="geometry" />
        </mxCell>
        <mxCell id="JHcWR6IvonrnQp6wBBEh-92" value="title" style="text;strokeColor=none;fillColor=none;spacingLeft=4;spacingRight=4;overflow=hidden;rotatable=0;points=[[0,0.5],[1,0.5]];portConstraint=eastwest;fontSize=12;whiteSpace=wrap;html=1;fontFamily=Comic Sans MS;" parent="JHcWR6IvonrnQp6wBBEh-90" vertex="1">
          <mxGeometry y="56" width="120" height="30" as="geometry" />
        </mxCell>
        <mxCell id="JHcWR6IvonrnQp6wBBEh-93" value="content" style="text;strokeColor=none;fillColor=none;spacingLeft=4;spacingRight=4;overflow=hidden;rotatable=0;points=[[0,0.5],[1,0.5]];portConstraint=eastwest;fontSize=12;whiteSpace=wrap;html=1;fontFamily=Comic Sans MS;" parent="JHcWR6IvonrnQp6wBBEh-90" vertex="1">
          <mxGeometry y="86" width="120" height="30" as="geometry" />
        </mxCell>
        <mxCell id="JHcWR6IvonrnQp6wBBEh-94" value="category_id" style="text;strokeColor=none;fillColor=none;spacingLeft=4;spacingRight=4;overflow=hidden;rotatable=0;points=[[0,0.5],[1,0.5]];portConstraint=eastwest;fontSize=12;whiteSpace=wrap;html=1;fontFamily=Comic Sans MS;" parent="JHcWR6IvonrnQp6wBBEh-90" vertex="1">
          <mxGeometry y="116" width="120" height="30" as="geometry" />
        </mxCell>
        <mxCell id="JHcWR6IvonrnQp6wBBEh-95" value="authors" style="text;strokeColor=none;fillColor=none;spacingLeft=4;spacingRight=4;overflow=hidden;rotatable=0;points=[[0,0.5],[1,0.5]];portConstraint=eastwest;fontSize=12;whiteSpace=wrap;html=1;fontFamily=Comic Sans MS;" parent="JHcWR6IvonrnQp6wBBEh-90" vertex="1">
          <mxGeometry y="146" width="120" height="30" as="geometry" />
        </mxCell>
        <mxCell id="JHcWR6IvonrnQp6wBBEh-101" value="pubished_date" style="text;strokeColor=none;fillColor=none;spacingLeft=4;spacingRight=4;overflow=hidden;rotatable=0;points=[[0,0.5],[1,0.5]];portConstraint=eastwest;fontSize=12;whiteSpace=wrap;html=1;fontFamily=Comic Sans MS;" parent="JHcWR6IvonrnQp6wBBEh-90" vertex="1">
          <mxGeometry y="176" width="120" height="30" as="geometry" />
        </mxCell>
        <mxCell id="JHcWR6IvonrnQp6wBBEh-103" value="scheduled_date" style="text;strokeColor=none;fillColor=none;spacingLeft=4;spacingRight=4;overflow=hidden;rotatable=0;points=[[0,0.5],[1,0.5]];portConstraint=eastwest;fontSize=12;whiteSpace=wrap;html=1;fontFamily=Comic Sans MS;" parent="JHcWR6IvonrnQp6wBBEh-90" vertex="1">
          <mxGeometry y="206" width="120" height="30" as="geometry" />
        </mxCell>
        <mxCell id="JHcWR6IvonrnQp6wBBEh-105" value="updated_at" style="text;strokeColor=none;fillColor=none;spacingLeft=4;spacingRight=4;overflow=hidden;rotatable=0;points=[[0,0.5],[1,0.5]];portConstraint=eastwest;fontSize=12;whiteSpace=wrap;html=1;fontFamily=Comic Sans MS;" parent="JHcWR6IvonrnQp6wBBEh-90" vertex="1">
          <mxGeometry y="236" width="120" height="30" as="geometry" />
        </mxCell>
        <mxCell id="JHcWR6IvonrnQp6wBBEh-106" value="created_at" style="text;strokeColor=none;fillColor=none;spacingLeft=4;spacingRight=4;overflow=hidden;rotatable=0;points=[[0,0.5],[1,0.5]];portConstraint=eastwest;fontSize=12;whiteSpace=wrap;html=1;fontFamily=Comic Sans MS;" parent="JHcWR6IvonrnQp6wBBEh-90" vertex="1">
          <mxGeometry y="266" width="120" height="30" as="geometry" />
        </mxCell>
        <mxCell id="JHcWR6IvonrnQp6wBBEh-107" value="status" style="text;strokeColor=none;fillColor=none;spacingLeft=4;spacingRight=4;overflow=hidden;rotatable=0;points=[[0,0.5],[1,0.5]];portConstraint=eastwest;fontSize=12;whiteSpace=wrap;html=1;fontFamily=Comic Sans MS;" parent="JHcWR6IvonrnQp6wBBEh-90" vertex="1">
          <mxGeometry y="296" width="120" height="30" as="geometry" />
        </mxCell>
        <mxCell id="JHcWR6IvonrnQp6wBBEh-108" value="metadata" style="text;strokeColor=none;fillColor=none;spacingLeft=4;spacingRight=4;overflow=hidden;rotatable=0;points=[[0,0.5],[1,0.5]];portConstraint=eastwest;fontSize=12;whiteSpace=wrap;html=1;fontFamily=Comic Sans MS;" parent="JHcWR6IvonrnQp6wBBEh-90" vertex="1">
          <mxGeometry y="326" width="120" height="30" as="geometry" />
        </mxCell>
        <mxCell id="JHcWR6IvonrnQp6wBBEh-109" value="&amp;nbsp; &amp;nbsp; &amp;nbsp; &amp;nbsp; &amp;nbsp; keywords" style="text;strokeColor=none;fillColor=none;spacingLeft=4;spacingRight=4;overflow=hidden;rotatable=0;points=[[0,0.5],[1,0.5]];portConstraint=eastwest;fontSize=12;whiteSpace=wrap;html=1;fontFamily=Comic Sans MS;" parent="JHcWR6IvonrnQp6wBBEh-90" vertex="1">
          <mxGeometry y="356" width="120" height="30" as="geometry" />
        </mxCell>
        <mxCell id="JHcWR6IvonrnQp6wBBEh-110" value="&amp;nbsp; &amp;nbsp; &amp;nbsp; &amp;nbsp; &amp;nbsp; read_time" style="text;strokeColor=none;fillColor=none;spacingLeft=4;spacingRight=4;overflow=hidden;rotatable=0;points=[[0,0.5],[1,0.5]];portConstraint=eastwest;fontSize=12;whiteSpace=wrap;html=1;fontFamily=Comic Sans MS;" parent="JHcWR6IvonrnQp6wBBEh-90" vertex="1">
          <mxGeometry y="386" width="120" height="30" as="geometry" />
        </mxCell>
        <mxCell id="JHcWR6IvonrnQp6wBBEh-111" value="&amp;nbsp; &amp;nbsp; &amp;nbsp; &amp;nbsp; &amp;nbsp; description" style="text;strokeColor=none;fillColor=none;spacingLeft=4;spacingRight=4;overflow=hidden;rotatable=0;points=[[0,0.5],[1,0.5]];portConstraint=eastwest;fontSize=12;whiteSpace=wrap;html=1;fontFamily=Comic Sans MS;" parent="JHcWR6IvonrnQp6wBBEh-90" vertex="1">
          <mxGeometry y="416" width="120" height="30" as="geometry" />
        </mxCell>
        <mxCell id="JHcWR6IvonrnQp6wBBEh-112" value="&amp;nbsp; &amp;nbsp; &amp;nbsp; &amp;nbsp; &amp;nbsp; url" style="text;strokeColor=none;fillColor=none;spacingLeft=4;spacingRight=4;overflow=hidden;rotatable=0;points=[[0,0.5],[1,0.5]];portConstraint=eastwest;fontSize=12;whiteSpace=wrap;html=1;fontFamily=Comic Sans MS;" parent="JHcWR6IvonrnQp6wBBEh-90" vertex="1">
          <mxGeometry y="446" width="120" height="30" as="geometry" />
        </mxCell>
        <mxCell id="JHcWR6IvonrnQp6wBBEh-113" value="Categories" style="swimlane;fontStyle=0;childLayout=stackLayout;horizontal=1;startSize=26;horizontalStack=0;resizeParent=1;resizeParentMax=0;resizeLast=0;collapsible=1;marginBottom=0;align=center;fontSize=14;fontFamily=Comic Sans MS;" parent="1" vertex="1">
          <mxGeometry x="1102" y="676" width="120" height="116" as="geometry">
            <mxRectangle x="240" y="1860" width="60" height="30" as="alternateBounds" />
          </mxGeometry>
        </mxCell>
        <mxCell id="JHcWR6IvonrnQp6wBBEh-114" value="id" style="text;strokeColor=none;fillColor=none;spacingLeft=4;spacingRight=4;overflow=hidden;rotatable=0;points=[[0,0.5],[1,0.5]];portConstraint=eastwest;fontSize=12;whiteSpace=wrap;html=1;fontFamily=Comic Sans MS;labelBorderColor=none;textShadow=0;fontStyle=4" parent="JHcWR6IvonrnQp6wBBEh-113" vertex="1">
          <mxGeometry y="26" width="120" height="30" as="geometry" />
        </mxCell>
        <mxCell id="JHcWR6IvonrnQp6wBBEh-115" value="name" style="text;strokeColor=none;fillColor=none;spacingLeft=4;spacingRight=4;overflow=hidden;rotatable=0;points=[[0,0.5],[1,0.5]];portConstraint=eastwest;fontSize=12;whiteSpace=wrap;html=1;fontFamily=Comic Sans MS;" parent="JHcWR6IvonrnQp6wBBEh-113" vertex="1">
          <mxGeometry y="56" width="120" height="30" as="geometry" />
        </mxCell>
        <mxCell id="JHcWR6IvonrnQp6wBBEh-116" value="parent_id" style="text;strokeColor=none;fillColor=none;spacingLeft=4;spacingRight=4;overflow=hidden;rotatable=0;points=[[0,0.5],[1,0.5]];portConstraint=eastwest;fontSize=12;whiteSpace=wrap;html=1;fontFamily=Comic Sans MS;" parent="JHcWR6IvonrnQp6wBBEh-113" vertex="1">
          <mxGeometry y="86" width="120" height="30" as="geometry" />
        </mxCell>
        <mxCell id="JHcWR6IvonrnQp6wBBEh-117" value="Tags" style="swimlane;fontStyle=0;childLayout=stackLayout;horizontal=1;startSize=26;horizontalStack=0;resizeParent=1;resizeParentMax=0;resizeLast=0;collapsible=1;marginBottom=0;align=center;fontSize=14;fontFamily=Comic Sans MS;" parent="1" vertex="1">
          <mxGeometry x="1102" y="804" width="120" height="86" as="geometry">
            <mxRectangle x="240" y="1860" width="60" height="30" as="alternateBounds" />
          </mxGeometry>
        </mxCell>
        <mxCell id="JHcWR6IvonrnQp6wBBEh-118" value="id" style="text;strokeColor=none;fillColor=none;spacingLeft=4;spacingRight=4;overflow=hidden;rotatable=0;points=[[0,0.5],[1,0.5]];portConstraint=eastwest;fontSize=12;whiteSpace=wrap;html=1;fontFamily=Comic Sans MS;labelBorderColor=none;textShadow=0;fontStyle=4" parent="JHcWR6IvonrnQp6wBBEh-117" vertex="1">
          <mxGeometry y="26" width="120" height="30" as="geometry" />
        </mxCell>
        <mxCell id="JHcWR6IvonrnQp6wBBEh-119" value="name" style="text;strokeColor=none;fillColor=none;spacingLeft=4;spacingRight=4;overflow=hidden;rotatable=0;points=[[0,0.5],[1,0.5]];portConstraint=eastwest;fontSize=12;whiteSpace=wrap;html=1;fontFamily=Comic Sans MS;" parent="JHcWR6IvonrnQp6wBBEh-117" vertex="1">
          <mxGeometry y="56" width="120" height="30" as="geometry" />
        </mxCell>
        <mxCell id="uLjusjrLEt5iC8HitBdz-4" value="writed" style="shape=rhombus;double=1;perimeter=rhombusPerimeter;whiteSpace=wrap;html=1;align=center;fontFamily=Comic Sans MS;fontStyle=1;fontSize=10;" vertex="1" parent="1">
          <mxGeometry x="1554" y="326" width="70" height="50" as="geometry" />
        </mxCell>
        <mxCell id="uLjusjrLEt5iC8HitBdz-5" value="" style="fontSize=12;html=1;endArrow=Line;startArrow=ERmandOne;rounded=0;entryX=0;entryY=0.5;entryDx=0;entryDy=0;" edge="1" parent="1" target="uLjusjrLEt5iC8HitBdz-4">
          <mxGeometry width="100" height="100" relative="1" as="geometry">
            <mxPoint x="1441.5" y="351" as="sourcePoint" />
            <mxPoint x="1551.5" y="351" as="targetPoint" />
          </mxGeometry>
        </mxCell>
        <mxCell id="uLjusjrLEt5iC8HitBdz-8" value="" style="edgeStyle=entityRelationEdgeStyle;fontSize=12;html=1;endArrow=ERoneToMany;rounded=0;exitX=1;exitY=0.5;exitDx=0;exitDy=0;entryX=0;entryY=0.5;entryDx=0;entryDy=0;" edge="1" parent="1" source="uLjusjrLEt5iC8HitBdz-4" target="JHcWR6IvonrnQp6wBBEh-73">
          <mxGeometry width="100" height="100" relative="1" as="geometry">
            <mxPoint x="1631.5" y="371" as="sourcePoint" />
            <mxPoint x="1731.5" y="271" as="targetPoint" />
          </mxGeometry>
        </mxCell>
        <mxCell id="uLjusjrLEt5iC8HitBdz-9" value="Likes" style="shape=rhombus;double=1;perimeter=rhombusPerimeter;whiteSpace=wrap;html=1;align=center;fontFamily=Comic Sans MS;fontStyle=1;fontSize=10;" vertex="1" parent="1">
          <mxGeometry x="1551.5" y="451" width="75" height="42.5" as="geometry" />
        </mxCell>
        <mxCell id="uLjusjrLEt5iC8HitBdz-10" value="" style="fontSize=12;html=1;endArrow=Line;startArrow=ERmandOne;rounded=0;entryX=0;entryY=0.5;entryDx=0;entryDy=0;exitX=1.003;exitY=0.662;exitDx=0;exitDy=0;exitPerimeter=0;" edge="1" parent="1" source="JHcWR6IvonrnQp6wBBEh-12" target="uLjusjrLEt5iC8HitBdz-9">
          <mxGeometry width="100" height="100" relative="1" as="geometry">
            <mxPoint x="1451.5" y="451" as="sourcePoint" />
            <mxPoint x="1564.5" y="451" as="targetPoint" />
          </mxGeometry>
        </mxCell>
        <mxCell id="uLjusjrLEt5iC8HitBdz-11" value="" style="edgeStyle=entityRelationEdgeStyle;fontSize=12;html=1;endArrow=ERoneToMany;rounded=0;exitX=1;exitY=0.5;exitDx=0;exitDy=0;entryX=0;entryY=0.5;entryDx=0;entryDy=0;" edge="1" parent="1" source="uLjusjrLEt5iC8HitBdz-9" target="JHcWR6IvonrnQp6wBBEh-83">
          <mxGeometry width="100" height="100" relative="1" as="geometry">
            <mxPoint x="1781.5" y="531" as="sourcePoint" />
            <mxPoint x="1881.5" y="431" as="targetPoint" />
          </mxGeometry>
        </mxCell>
        <mxCell id="uLjusjrLEt5iC8HitBdz-12" value="has" style="shape=rhombus;double=1;perimeter=rhombusPerimeter;whiteSpace=wrap;html=1;align=center;fontFamily=Comic Sans MS;fontStyle=1;fontSize=10;" vertex="1" parent="1">
          <mxGeometry x="1984" y="481" width="70" height="50" as="geometry" />
        </mxCell>
        <mxCell id="uLjusjrLEt5iC8HitBdz-13" value="" style="fontSize=12;html=1;endArrow=Line;startArrow=ERmandOne;rounded=0;exitX=0.999;exitY=0.147;exitDx=0;exitDy=0;entryX=0.5;entryY=0;entryDx=0;entryDy=0;exitPerimeter=0;" edge="1" parent="1" source="JHcWR6IvonrnQp6wBBEh-74" target="uLjusjrLEt5iC8HitBdz-12">
          <mxGeometry width="100" height="100" relative="1" as="geometry">
            <mxPoint x="1899" y="366" as="sourcePoint" />
            <mxPoint x="2079" y="431" as="targetPoint" />
            <Array as="points">
              <mxPoint x="2019" y="371" />
            </Array>
          </mxGeometry>
        </mxCell>
        <mxCell id="uLjusjrLEt5iC8HitBdz-14" value="" style="fontSize=12;html=1;endArrow=ERoneToMany;rounded=0;entryX=0.994;entryY=0.335;entryDx=0;entryDy=0;entryPerimeter=0;exitX=0.5;exitY=1;exitDx=0;exitDy=0;" edge="1" parent="1" source="uLjusjrLEt5iC8HitBdz-12" target="JHcWR6IvonrnQp6wBBEh-83">
          <mxGeometry width="100" height="100" relative="1" as="geometry">
            <mxPoint x="2074" y="556" as="sourcePoint" />
            <mxPoint x="1879" y="656" as="targetPoint" />
            <Array as="points">
              <mxPoint x="2019" y="651" />
            </Array>
          </mxGeometry>
        </mxCell>
        <mxCell id="uLjusjrLEt5iC8HitBdz-15" value="" style="shape=link;html=1;rounded=0;fontSize=10;exitX=0.48;exitY=0;exitDx=0;exitDy=0;exitPerimeter=0;" edge="1" parent="1" source="JHcWR6IvonrnQp6wBBEh-5">
          <mxGeometry relative="1" as="geometry">
            <mxPoint x="1379" y="250" as="sourcePoint" />
            <mxPoint x="1379" y="201" as="targetPoint" />
          </mxGeometry>
        </mxCell>
        <mxCell id="uLjusjrLEt5iC8HitBdz-16" value="O" style="ellipse;whiteSpace=wrap;html=1;align=center;fontFamily=Comic Sans MS;fontSize=10;" vertex="1" parent="1">
          <mxGeometry x="1366.5" y="181" width="25" height="20" as="geometry" />
        </mxCell>
        <mxCell id="uLjusjrLEt5iC8HitBdz-18" value="" style="endArrow=none;html=1;rounded=0;curved=1;fontSize=10;" edge="1" parent="1">
          <mxGeometry width="50" height="50" relative="1" as="geometry">
            <mxPoint x="1374.5" y="148" as="sourcePoint" />
            <mxPoint x="1384.5" y="148" as="targetPoint" />
            <Array as="points">
              <mxPoint x="1374.5" y="138" />
              <mxPoint x="1384.5" y="138" />
            </Array>
          </mxGeometry>
        </mxCell>
        <mxCell id="uLjusjrLEt5iC8HitBdz-19" value="" style="endArrow=none;html=1;rounded=0;exitX=0.5;exitY=0;exitDx=0;exitDy=0;entryX=0.5;entryY=1;entryDx=0;entryDy=0;fontSize=10;" edge="1" parent="1" source="uLjusjrLEt5iC8HitBdz-16" target="JHcWR6IvonrnQp6wBBEh-36">
          <mxGeometry relative="1" as="geometry">
            <mxPoint x="1381" y="181" as="sourcePoint" />
            <mxPoint x="1381" y="96" as="targetPoint" />
          </mxGeometry>
        </mxCell>
        <mxCell id="uLjusjrLEt5iC8HitBdz-20" value="" style="endArrow=none;html=1;rounded=0;exitX=1;exitY=0;exitDx=0;exitDy=0;entryX=0;entryY=0.5;entryDx=0;entryDy=0;fontSize=10;" edge="1" parent="1" source="uLjusjrLEt5iC8HitBdz-16" target="JHcWR6IvonrnQp6wBBEh-34">
          <mxGeometry relative="1" as="geometry">
            <mxPoint x="1389" y="191" as="sourcePoint" />
            <mxPoint x="1389" y="117" as="targetPoint" />
          </mxGeometry>
        </mxCell>
        <mxCell id="uLjusjrLEt5iC8HitBdz-21" value="" style="endArrow=none;html=1;rounded=0;exitX=0;exitY=0;exitDx=0;exitDy=0;entryX=1;entryY=0.5;entryDx=0;entryDy=0;fontSize=10;" edge="1" parent="1" source="uLjusjrLEt5iC8HitBdz-16" target="JHcWR6IvonrnQp6wBBEh-23">
          <mxGeometry relative="1" as="geometry">
            <mxPoint x="1389" y="191" as="sourcePoint" />
            <mxPoint x="1389" y="117" as="targetPoint" />
          </mxGeometry>
        </mxCell>
        <mxCell id="uLjusjrLEt5iC8HitBdz-22" value="" style="endArrow=none;html=1;rounded=0;curved=1;fontSize=10;" edge="1" parent="1">
          <mxGeometry width="50" height="50" relative="1" as="geometry">
            <mxPoint x="1529" y="111" as="sourcePoint" />
            <mxPoint x="1539" y="121" as="targetPoint" />
            <Array as="points">
              <mxPoint x="1549" y="104" />
              <mxPoint x="1549" y="114" />
            </Array>
          </mxGeometry>
        </mxCell>
        <mxCell id="uLjusjrLEt5iC8HitBdz-26" value="" style="endArrow=none;html=1;rounded=0;strokeColor=default;curved=1;" edge="1" parent="1">
          <mxGeometry width="50" height="50" relative="1" as="geometry">
            <mxPoint x="1259" y="131" as="sourcePoint" />
            <mxPoint x="1266.5" y="121" as="targetPoint" />
            <Array as="points">
              <mxPoint x="1239" y="111" />
            </Array>
          </mxGeometry>
        </mxCell>
        <mxCell id="uLjusjrLEt5iC8HitBdz-27" value="has" style="shape=rhombus;perimeter=rhombusPerimeter;whiteSpace=wrap;html=1;align=center;fontFamily=Comic Sans MS;fontStyle=1" vertex="1" parent="1">
          <mxGeometry x="1141" y="368" width="75" height="45" as="geometry" />
        </mxCell>
        <mxCell id="uLjusjrLEt5iC8HitBdz-28" value="" style="fontSize=12;html=1;endArrow=Line;startArrow=ERmandOne;rounded=0;exitX=-0.003;exitY=0.933;exitDx=0;exitDy=0;exitPerimeter=0;entryX=1;entryY=0.5;entryDx=0;entryDy=0;" edge="1" parent="1" source="JHcWR6IvonrnQp6wBBEh-9" target="uLjusjrLEt5iC8HitBdz-27">
          <mxGeometry width="100" height="100" relative="1" as="geometry">
            <mxPoint x="1309" y="371" as="sourcePoint" />
            <mxPoint x="1229" y="421" as="targetPoint" />
          </mxGeometry>
        </mxCell>
        <mxCell id="uLjusjrLEt5iC8HitBdz-29" value="" style="edgeStyle=entityRelationEdgeStyle;fontSize=12;html=1;endArrow=ERoneToMany;rounded=0;exitX=0;exitY=0.5;exitDx=0;exitDy=0;entryX=1;entryY=0.45;entryDx=0;entryDy=0;entryPerimeter=0;" edge="1" parent="1" source="uLjusjrLEt5iC8HitBdz-27" target="JHcWR6IvonrnQp6wBBEh-63">
          <mxGeometry width="100" height="100" relative="1" as="geometry">
            <mxPoint x="1021.5" y="461" as="sourcePoint" />
            <mxPoint x="1169.5" y="462" as="targetPoint" />
          </mxGeometry>
        </mxCell>
        <mxCell id="uLjusjrLEt5iC8HitBdz-30" value="Uploaded" style="shape=rhombus;perimeter=rhombusPerimeter;whiteSpace=wrap;html=1;align=center;fontFamily=Comic Sans MS;fontStyle=1" vertex="1" parent="1">
          <mxGeometry x="1135" y="511.5" width="87" height="45" as="geometry" />
        </mxCell>
        <mxCell id="uLjusjrLEt5iC8HitBdz-32" value="" style="edgeStyle=entityRelationEdgeStyle;fontSize=12;html=1;endArrow=ERmandOne;rounded=0;exitX=1;exitY=0.5;exitDx=0;exitDy=0;" edge="1" parent="1" source="uLjusjrLEt5iC8HitBdz-30">
          <mxGeometry width="100" height="100" relative="1" as="geometry">
            <mxPoint x="876" y="654" as="sourcePoint" />
            <mxPoint x="1321" y="534" as="targetPoint" />
          </mxGeometry>
        </mxCell>
        <mxCell id="uLjusjrLEt5iC8HitBdz-34" value="" style="fontSize=12;html=1;endArrow=ERoneToMany;rounded=0;entryX=1;entryY=0.5;entryDx=0;entryDy=0;exitX=0;exitY=0.5;exitDx=0;exitDy=0;" edge="1" parent="1" source="uLjusjrLEt5iC8HitBdz-30" target="JHcWR6IvonrnQp6wBBEh-39">
          <mxGeometry width="100" height="100" relative="1" as="geometry">
            <mxPoint x="1124" y="533.47" as="sourcePoint" />
            <mxPoint x="881" y="533.47" as="targetPoint" />
          </mxGeometry>
        </mxCell>
        <mxCell id="uLjusjrLEt5iC8HitBdz-38" value="" style="triangle;whiteSpace=wrap;html=1;rotation=90;" vertex="1" parent="1">
          <mxGeometry x="608" y="666" width="50" height="70" as="geometry" />
        </mxCell>
        <mxCell id="uLjusjrLEt5iC8HitBdz-39" value="" style="endArrow=none;html=1;rounded=0;entryX=0.5;entryY=1;entryDx=0;entryDy=0;exitX=0;exitY=0.5;exitDx=0;exitDy=0;" edge="1" parent="1" source="uLjusjrLEt5iC8HitBdz-38" target="JHcWR6IvonrnQp6wBBEh-39">
          <mxGeometry width="50" height="50" relative="1" as="geometry">
            <mxPoint x="791" y="811" as="sourcePoint" />
            <mxPoint x="841" y="761" as="targetPoint" />
          </mxGeometry>
        </mxCell>
        <mxCell id="uLjusjrLEt5iC8HitBdz-40" value="" style="endArrow=none;html=1;rounded=0;exitX=0.5;exitY=0;exitDx=0;exitDy=0;entryX=0.5;entryY=1;entryDx=0;entryDy=0;" edge="1" parent="1" source="JHcWR6IvonrnQp6wBBEh-46" target="uLjusjrLEt5iC8HitBdz-38">
          <mxGeometry width="50" height="50" relative="1" as="geometry">
            <mxPoint x="691" y="691" as="sourcePoint" />
            <mxPoint x="741" y="641" as="targetPoint" />
          </mxGeometry>
        </mxCell>
        <mxCell id="uLjusjrLEt5iC8HitBdz-41" value="" style="endArrow=none;html=1;rounded=0;exitX=0.5;exitY=0;exitDx=0;exitDy=0;entryX=0.5;entryY=0;entryDx=0;entryDy=0;" edge="1" parent="1" source="uLjusjrLEt5iC8HitBdz-38" target="JHcWR6IvonrnQp6wBBEh-53">
          <mxGeometry width="50" height="50" relative="1" as="geometry">
            <mxPoint x="691" y="691" as="sourcePoint" />
            <mxPoint x="741" y="641" as="targetPoint" />
          </mxGeometry>
        </mxCell>
        <mxCell id="uLjusjrLEt5iC8HitBdz-42" value="IS-A" style="text;html=1;align=center;verticalAlign=middle;resizable=0;points=[];autosize=1;strokeColor=none;fillColor=none;fontFamily=Comic Sans MS;fontSize=10;fontStyle=1" vertex="1" parent="1">
          <mxGeometry x="606" y="676" width="50" height="30" as="geometry" />
        </mxCell>
        <mxCell id="uLjusjrLEt5iC8HitBdz-43" value="has" style="shape=rhombus;perimeter=rhombusPerimeter;whiteSpace=wrap;html=1;align=center;fontFamily=Comic Sans MS;fontStyle=1" vertex="1" parent="1">
          <mxGeometry x="1312.5" y="706" width="75" height="45" as="geometry" />
        </mxCell>
        <mxCell id="uLjusjrLEt5iC8HitBdz-44" value="has" style="shape=rhombus;perimeter=rhombusPerimeter;whiteSpace=wrap;html=1;align=center;fontFamily=Comic Sans MS;fontStyle=1" vertex="1" parent="1">
          <mxGeometry x="1312.5" y="831" width="75" height="45" as="geometry" />
        </mxCell>
        <mxCell id="uLjusjrLEt5iC8HitBdz-45" value="child/father" style="shape=rhombus;perimeter=rhombusPerimeter;whiteSpace=wrap;html=1;align=center;fontFamily=Comic Sans MS;fontStyle=1" vertex="1" parent="1">
          <mxGeometry x="940" y="711.5" width="100" height="45" as="geometry" />
        </mxCell>
        <mxCell id="uLjusjrLEt5iC8HitBdz-47" value="" style="fontSize=12;html=1;endArrow=Line;startArrow=ERmandOne;rounded=0;entryX=1;entryY=0;entryDx=0;entryDy=0;exitX=0.003;exitY=0.703;exitDx=0;exitDy=0;exitPerimeter=0;" edge="1" parent="1" source="JHcWR6IvonrnQp6wBBEh-114" target="uLjusjrLEt5iC8HitBdz-45">
          <mxGeometry width="100" height="100" relative="1" as="geometry">
            <mxPoint x="1080" y="772" as="sourcePoint" />
            <mxPoint x="1015" y="770" as="targetPoint" />
          </mxGeometry>
        </mxCell>
        <mxCell id="uLjusjrLEt5iC8HitBdz-48" value="" style="fontSize=12;html=1;endArrow=Line;startArrow=ERmandOne;rounded=0;entryX=1;entryY=1;entryDx=0;entryDy=0;exitX=0.001;exitY=0.451;exitDx=0;exitDy=0;exitPerimeter=0;" edge="1" parent="1" source="JHcWR6IvonrnQp6wBBEh-115" target="uLjusjrLEt5iC8HitBdz-45">
          <mxGeometry width="100" height="100" relative="1" as="geometry">
            <mxPoint x="1102" y="757" as="sourcePoint" />
            <mxPoint x="1015" y="757" as="targetPoint" />
          </mxGeometry>
        </mxCell>
        <mxCell id="uLjusjrLEt5iC8HitBdz-49" value="" style="edgeStyle=entityRelationEdgeStyle;fontSize=12;html=1;endArrow=ERoneToMany;rounded=0;entryX=0;entryY=0.5;entryDx=0;entryDy=0;exitX=1;exitY=0.5;exitDx=0;exitDy=0;" edge="1" parent="1" source="uLjusjrLEt5iC8HitBdz-43" target="JHcWR6IvonrnQp6wBBEh-91">
          <mxGeometry width="100" height="100" relative="1" as="geometry">
            <mxPoint x="1390" y="730" as="sourcePoint" />
            <mxPoint x="1400" y="710" as="targetPoint" />
          </mxGeometry>
        </mxCell>
        <mxCell id="uLjusjrLEt5iC8HitBdz-50" value="" style="fontSize=12;html=1;endArrow=ERmandOne;rounded=0;entryX=0.998;entryY=0.901;entryDx=0;entryDy=0;entryPerimeter=0;exitX=0;exitY=0.5;exitDx=0;exitDy=0;" edge="1" parent="1" source="uLjusjrLEt5iC8HitBdz-43" target="JHcWR6IvonrnQp6wBBEh-114">
          <mxGeometry width="100" height="100" relative="1" as="geometry">
            <mxPoint x="1320" y="810" as="sourcePoint" />
            <mxPoint x="1410" y="700" as="targetPoint" />
          </mxGeometry>
        </mxCell>
        <mxCell id="uLjusjrLEt5iC8HitBdz-51" value="" style="edgeStyle=entityRelationEdgeStyle;fontSize=12;html=1;endArrow=ERzeroToMany;endFill=1;rounded=0;entryX=-0.012;entryY=0.162;entryDx=0;entryDy=0;exitX=1;exitY=0.5;exitDx=0;exitDy=0;entryPerimeter=0;" edge="1" parent="1" source="uLjusjrLEt5iC8HitBdz-44" target="JHcWR6IvonrnQp6wBBEh-101">
          <mxGeometry width="100" height="100" relative="1" as="geometry">
            <mxPoint x="1390" y="840" as="sourcePoint" />
            <mxPoint x="1490" y="740" as="targetPoint" />
          </mxGeometry>
        </mxCell>
        <mxCell id="uLjusjrLEt5iC8HitBdz-52" value="" style="fontSize=12;html=1;endArrow=ERzeroToMany;endFill=1;rounded=0;entryX=1;entryY=0.794;entryDx=0;entryDy=0;exitX=0;exitY=0.5;exitDx=0;exitDy=0;entryPerimeter=0;" edge="1" parent="1" source="uLjusjrLEt5iC8HitBdz-44" target="JHcWR6IvonrnQp6wBBEh-118">
          <mxGeometry width="100" height="100" relative="1" as="geometry">
            <mxPoint x="1398" y="864" as="sourcePoint" />
            <mxPoint x="1484" y="781" as="targetPoint" />
          </mxGeometry>
        </mxCell>
        <mxCell id="uLjusjrLEt5iC8HitBdz-53" value="has" style="shape=rhombus;double=1;perimeter=rhombusPerimeter;whiteSpace=wrap;html=1;align=center;fontFamily=Comic Sans MS;fontStyle=1;fontSize=10;" vertex="1" parent="1">
          <mxGeometry x="1804.5" y="831" width="70" height="50" as="geometry" />
        </mxCell>
        <mxCell id="uLjusjrLEt5iC8HitBdz-54" value="" style="fontSize=12;html=1;endArrow=ERoneToMany;rounded=0;entryX=0.561;entryY=1.008;entryDx=0;entryDy=0;entryPerimeter=0;exitX=0.5;exitY=0;exitDx=0;exitDy=0;" edge="1" parent="1" source="uLjusjrLEt5iC8HitBdz-53" target="JHcWR6IvonrnQp6wBBEh-84">
          <mxGeometry width="100" height="100" relative="1" as="geometry">
            <mxPoint x="1840" y="830" as="sourcePoint" />
            <mxPoint x="1839.02" y="730" as="targetPoint" />
          </mxGeometry>
        </mxCell>
        <mxCell id="uLjusjrLEt5iC8HitBdz-56" value="" style="fontSize=12;html=1;endArrow=ERmandOne;startArrow=Line;rounded=0;exitX=0.5;exitY=1;exitDx=0;exitDy=0;" edge="1" parent="1" source="uLjusjrLEt5iC8HitBdz-53">
          <mxGeometry width="100" height="100" relative="1" as="geometry">
            <mxPoint x="1840" y="881" as="sourcePoint" />
            <mxPoint x="1594" y="940" as="targetPoint" />
            <Array as="points">
              <mxPoint x="1840" y="940" />
            </Array>
          </mxGeometry>
        </mxCell>
        <mxCell id="uLjusjrLEt5iC8HitBdz-57" value="Published" style="shape=rhombus;perimeter=rhombusPerimeter;whiteSpace=wrap;html=1;align=center;fontFamily=Comic Sans MS;fontStyle=1" vertex="1" parent="1">
          <mxGeometry x="1497" y="510" width="75" height="45" as="geometry" />
        </mxCell>
        <mxCell id="uLjusjrLEt5iC8HitBdz-58" value="" style="fontSize=12;html=1;endArrow=ERoneToMany;rounded=0;entryX=1.008;entryY=0.667;entryDx=0;entryDy=0;exitX=0;exitY=0.5;exitDx=0;exitDy=0;entryPerimeter=0;" edge="1" parent="1" source="uLjusjrLEt5iC8HitBdz-57" target="JHcWR6IvonrnQp6wBBEh-19">
          <mxGeometry width="100" height="100" relative="1" as="geometry">
            <mxPoint x="1510" y="560" as="sourcePoint" />
            <mxPoint x="1610" y="460" as="targetPoint" />
          </mxGeometry>
        </mxCell>
        <mxCell id="uLjusjrLEt5iC8HitBdz-59" value="" style="fontSize=12;html=1;endArrow=ERoneToMany;rounded=0;entryX=0.876;entryY=0.001;entryDx=0;entryDy=0;exitX=0.5;exitY=1;exitDx=0;exitDy=0;entryPerimeter=0;" edge="1" parent="1" source="uLjusjrLEt5iC8HitBdz-57" target="uLjusjrLEt5iC8HitBdz-60">
          <mxGeometry width="100" height="100" relative="1" as="geometry">
            <mxPoint x="1513" y="543" as="sourcePoint" />
            <mxPoint x="1452" y="542" as="targetPoint" />
          </mxGeometry>
        </mxCell>
        <mxCell id="uLjusjrLEt5iC8HitBdz-60" value="" style="rounded=0;whiteSpace=wrap;html=1;fillColor=none;" vertex="1" parent="1">
          <mxGeometry x="930" y="580" width="690" height="500" as="geometry" />
        </mxCell>
        <mxCell id="uLjusjrLEt5iC8HitBdz-61" value="&lt;font face=&quot;Comic Sans MS&quot;&gt;Content&lt;/font&gt;" style="text;html=1;align=center;verticalAlign=middle;resizable=0;points=[];autosize=1;strokeColor=none;fillColor=none;" vertex="1" parent="1">
          <mxGeometry x="1554" y="556" width="70" height="30" as="geometry" />
        </mxCell>
      </root>
    </mxGraphModel>
  </diagram>
</mxfile>
